<svg viewBox="0 0 512 512" xmlns="http://www.w3.org/2000/svg"><path d="m0 0h512v512h-512z" fill="#08c"/><path d="m256 102.27a79.17 79.17 0 0 0 -79 79c0 23.64 11.67 43.7 28.21 58.2l-23.63 43.73a33 33 0 0 0 -4.58-.35 33.87 33.87 0 1 0 33.86 33.86 33.67 33.67 0 0 0 -9.53-23.28l27.13-50.43 4.94-9.17-8.46-5.64a56.36 56.36 0 1 1 87.47-46.91 55.36 55.36 0 0 1 -3.17 18.72l21.16 7.76a78.94 78.94 0 0 0 -74.4-105.49zm0 45.14a33.87 33.87 0 0 0 0 67.73 33 33 0 0 0 4.58-.35l31 49.38 5.65 9.17 9.52-5.65a56.51 56.51 0 1 1 -13.75 86.78l-16.93 14.81a79 79 0 1 0 58.93-131.57c-10.39 0-19.45 4.1-28.57 7.76l-25.76-41.27a33.62 33.62 0 0 0 9.17-22.92 34 34 0 0 0 -33.84-33.87zm0 22.59a11.29 11.29 0 1 1 -11.29 11.29 11.12 11.12 0 0 1 11.29-11.29zm-92.06 68.78a79 79 0 1 0 52.55 146.38c21.58-12.46 33.2-34.2 36.69-57.14h50.08a33.87 33.87 0 1 0 0-22.57h-69.86v11.28a56.51 56.51 0 1 1 -84.65-49 55.52 55.52 0 0 1 18.69-6.7zm13.06 66.66a11.29 11.29 0 1 1 -11.29 11.28 11.12 11.12 0 0 1 11.29-11.28zm158 0a11.29 11.29 0 1 1 -11.29 11.28 11.12 11.12 0 0 1 11.29-11.28z" fill="#fff" opacity=".9"/></svg>